<svg width="68" height="42" viewBox="0 0 68 42" fill="none" xmlns="http://www.w3.org/2000/svg">
<g clip-path="url(#clip0_153_319)">
<path d="M57.6399 29.863L57.5628 29.9198C51.6222 34.0479 45.6515 36.5515 38.1671 38.039C26.7111 40.322 16.032 38.9649 10.3124 34.4925C7.73724 32.4869 6.29394 29.9699 6.03274 27.0184C5.32281 19.424 11.5883 11.5755 22.7362 6.01673L22.8366 5.95322L22.7362 5.68246L22.629 5.71923C9.50537 10.5159 0.299733 19.4774 1.00631 28.0145C1.30435 31.4942 2.99545 34.5761 5.94902 36.9226C12.0203 41.746 22.8165 43.2535 34.7915 40.9237C44.4392 39.0518 52.1145 35.1276 57.7839 30.1972L57.8977 30.1003L57.6399 29.863Z" fill="white"/>
<path d="M66.343 9.2524C64.0625 4.61953 59.0729 1.47412 52.2784 0.391114C41.2778 -1.36376 28.0939 2.94488 21.4802 9.92426L21.3965 10.0279L21.6075 10.2819L21.7113 10.2084C26.0847 6.85574 32.5946 4.34543 39.0911 3.42287C48.7421 2.08582 56.8393 4.28861 60.7305 9.33596C64.5414 14.2362 63.4497 23.6858 58.4769 29.1577L58.3831 29.2647L58.6309 29.522L58.7347 29.4452C66.3196 22.8702 69.973 16.6429 66.343 9.2524Z" fill="white"/>
<path d="M25.8336 22.5695H18.5635L17.7799 26.3834H25.9106L25.271 29.5054H13.0649L16.484 12.9561H28.1744L27.508 16.0747H19.9131L19.2065 19.4541H26.4833L25.8336 22.5695Z" fill="white"/>
<path d="M33.2242 16.0981H28.7637L29.4334 12.9561H44.8811C43.9256 13.1733 43.05 13.6526 42.3528 14.3399C41.8351 14.8059 41.4737 15.4199 41.318 16.0981H37.2694L34.5235 29.5054H30.4816L33.2242 16.0981Z" fill="white"/>
<path d="M41.469 25.4474C42.9733 26.2345 44.6462 26.6462 46.3447 26.6474C47.8181 26.6474 49.315 26.0825 49.315 24.7856C49.315 23.9031 48.4711 23.3148 46.636 22.5728C44.5297 21.7505 42.3564 20.4435 42.3564 18.0602C42.3564 14.6474 45.8357 12.6552 49.8977 12.6552C52.3824 12.6552 53.8291 13.1499 54.7232 13.5677L53.4005 16.6129C52.1948 16.0586 50.88 15.781 49.5528 15.8006C47.6005 15.8006 46.6628 16.6129 46.6628 17.395C46.6628 18.4246 48.0392 19.0196 49.5963 19.6781C52.0543 20.6608 53.6684 21.9845 53.6684 24.1739C53.6684 27.951 50.035 29.7995 45.8022 29.7995C43.0563 29.7494 41.0303 29.131 40.0156 28.419L41.469 25.4474Z" fill="white"/>
<path d="M64.086 30.9193C63.9021 30.8415 63.7027 30.8072 63.5033 30.819H63.0948V31.7316H63.5335C63.6874 31.7389 63.8415 31.7197 63.9889 31.6747C64.0706 31.649 64.1415 31.597 64.1906 31.5269C64.2397 31.4568 64.2641 31.3724 64.2601 31.287C64.268 31.2141 64.2544 31.1406 64.2211 31.0753C64.1878 31.01 64.1362 30.9558 64.0726 30.9193H64.086ZM63.5536 30.5316C63.8047 30.5187 64.0562 30.5492 64.297 30.6218C64.4293 30.6624 64.5438 30.7467 64.6217 30.8609C64.6996 30.9752 64.7363 31.1124 64.7256 31.2502C64.7319 31.3486 64.7104 31.4468 64.6636 31.5336C64.6169 31.6204 64.5467 31.6925 64.4611 31.7416C64.3401 31.8114 64.2052 31.8536 64.0659 31.8653C64.2279 31.878 64.3798 31.9491 64.4931 32.0654C64.6065 32.1816 64.6736 32.335 64.6821 32.497V32.6742C64.6788 32.7376 64.6788 32.8012 64.6821 32.8647C64.6781 32.9105 64.6862 32.9566 64.7055 32.9984V33.0218H64.2936C64.2936 33.0218 64.2936 33.0218 64.2936 32.9984C64.2936 32.975 64.2936 32.9984 64.2936 32.9683V32.8948V32.6976C64.3077 32.5877 64.2914 32.4761 64.2465 32.3748C64.2017 32.2734 64.13 32.1863 64.0391 32.1226C63.8655 32.0555 63.679 32.0281 63.4933 32.0424H63.1216V33.0218H62.6327V30.5316H63.5536ZM62.1002 30.4179C61.901 30.5897 61.7417 30.8028 61.6335 31.0424C61.5254 31.282 61.4709 31.5423 61.474 31.8051C61.4724 32.0681 61.5276 32.3284 61.6356 32.5683C61.7436 32.8083 61.9021 33.0222 62.1002 33.1956C62.5166 33.5615 63.0524 33.7634 63.6071 33.7634C64.1619 33.7634 64.6977 33.5615 65.1141 33.1956C65.3147 33.0237 65.4755 32.8103 65.5854 32.5702C65.6952 32.3301 65.7515 32.069 65.7503 31.8051C65.7549 31.5427 65.7018 31.2825 65.5948 31.0429C65.4878 30.8032 65.3294 30.5899 65.1308 30.4179C64.7196 30.0358 64.1755 29.8285 63.6138 29.8396C63.0528 29.8265 62.5091 30.0342 62.1002 30.4179ZM65.3853 33.4062C64.907 33.8547 64.2698 34.0952 63.6138 34.0747C63.2916 34.0848 62.9705 34.0309 62.6693 33.9162C62.3681 33.8014 62.0927 33.6281 61.8591 33.4062C61.6284 33.2083 61.4438 32.9625 61.3182 32.6859C61.1927 32.4093 61.1293 32.1087 61.1324 31.8051C61.1299 31.5001 61.1935 31.1982 61.3189 30.92C61.4444 30.6419 61.6286 30.3942 61.8591 30.1939C62.3473 29.768 62.9738 29.5332 63.6222 29.5332C64.2707 29.5332 64.8971 29.768 65.3853 30.1939C65.6139 30.3947 65.797 30.6418 65.9225 30.9187C66.0479 31.1957 66.1128 31.4961 66.1128 31.8001C66.1128 32.104 66.0479 32.4045 65.9225 32.6814C65.797 32.9584 65.6139 33.2054 65.3853 33.4062Z" fill="white"/>
</g>
<defs>
<clipPath id="clip0_153_319">
<rect width="66.7869" height="42" fill="white" transform="translate(0.969238)"/>
</clipPath>
</defs>
</svg>
