<svg width="64" height="42" viewBox="0 0 64 42" fill="none" xmlns="http://www.w3.org/2000/svg">
<g clip-path="url(#clip0_153_302)">
<path fill-rule="evenodd" clip-rule="evenodd" d="M10.1949 0H22.3156L10.4379 30.5853H0.0981445L10.1949 0Z" fill="white"/>
<path fill-rule="evenodd" clip-rule="evenodd" d="M25.5689 0H38.9096L27.6864 30.5853H16.3696L25.5689 0Z" fill="white"/>
<path fill-rule="evenodd" clip-rule="evenodd" d="M63.9691 0.0838623H51.9278C51.9278 0.0838623 37.2829 4.70754 34.8429 15.9824C32.4028 27.2573 42.1677 32.2073 55.4102 29.9374L60.3885 17.5252H52.7412L50.3011 25.5561C50.2731 25.6353 43.4251 23.3048 45.22 19.2171C46.6224 15.9871 50.016 13.2604 53.4096 12.3142C55.887 11.6198 58.7338 11.4193 60.6316 12.0066L63.9691 0.0838623Z" fill="white"/>
<path d="M1.47711 34.5797H0V41.8742H1.47711V34.5797Z" fill="white"/>
<path d="M4.31891 34.5797H2.8418V41.8742H4.31891V34.5797Z" fill="white"/>
<path d="M9.12433 39.1941V37.9636H12.3076V40.8673C11.9163 41.216 11.4606 41.4851 10.966 41.6597C10.3968 41.8814 9.79151 41.9967 9.18042 42C8.48437 42.0194 7.79514 41.8588 7.17977 41.5339C6.61459 41.2154 6.16593 40.7256 5.89899 40.1356C5.61171 39.5378 5.46464 38.8827 5.46894 38.2199C5.45233 37.5172 5.61307 36.8216 5.93638 36.1971C6.25218 35.6103 6.74191 35.135 7.3387 34.8361C7.88637 34.5796 8.48681 34.4551 9.09161 34.4725C9.84209 34.4229 10.5884 34.6175 11.2185 35.0272C11.7331 35.4109 12.085 35.973 12.2048 36.6026L10.751 36.8729C10.6606 36.5325 10.456 36.2331 10.1714 36.0246C9.85819 35.8112 9.48471 35.7034 9.10563 35.717C8.82034 35.7025 8.53527 35.7496 8.26987 35.8549C8.00448 35.9603 7.76499 36.1215 7.56775 36.3276C7.1559 36.8384 6.95675 37.4875 7.0115 38.1407C6.95452 38.8344 7.1522 39.5251 7.56775 40.0843C7.75708 40.298 7.99146 40.4673 8.25409 40.5801C8.51673 40.6929 8.80113 40.7465 9.08693 40.7368C9.40724 40.7353 9.72439 40.6736 10.0218 40.5551C10.3097 40.4395 10.579 40.2825 10.8211 40.089V39.1568L9.12433 39.1941Z" fill="white"/>
<path d="M18.3752 41.8742L15.7622 34.5797H17.3655L19.2166 39.9818L21.0069 34.5797H22.5728L19.9551 41.8742H18.3752Z" fill="white"/>
<path d="M24.7603 34.5797H23.2832V41.8742H24.7603V34.5797Z" fill="white"/>
<path d="M26.1626 41.8742V34.5797H31.5896V35.8149H27.6444V37.4323H31.3138V38.6628H27.6444V40.6437H31.7298V41.8742H26.1626Z" fill="white"/>
<path d="M34.6279 41.8742V35.8149H32.459V34.5797H38.2693V35.8149H36.105V41.8742H34.6279Z" fill="white"/>
<path d="M42.0791 41.8742V34.5797H43.5141L46.5104 39.4505V34.5797H47.88V41.8742H46.3983L43.4487 37.12V41.8742H42.0791Z" fill="white"/>
<path d="M56.0371 41.8742H54.4291L53.7933 40.2195H50.8672L50.2642 41.8742H48.6982L51.545 34.5797H53.1109L56.0371 41.8742ZM53.3166 38.989L52.3116 36.281L51.3206 38.989H53.3166Z" fill="white"/>
<path d="M56.8032 41.8742V34.5797H59.0095L60.3371 39.5577L61.6506 34.5797H63.8662V41.8742H62.492V36.1318L61.0429 41.8742H59.6172L58.1728 36.1318V41.8742H56.8032Z" fill="white"/>
</g>
<defs>
<clipPath id="clip0_153_302">
<rect width="63.9692" height="42" fill="white"/>
</clipPath>
</defs>
</svg>
