<svg width="60" height="56" viewBox="0 0 60 56" fill="none" xmlns="http://www.w3.org/2000/svg">
<g clip-path="url(#clip0_153_329)">
<path d="M58.5518 54.9338V54.4817C58.6257 54.4806 58.6992 54.4704 58.7707 54.4513C58.8471 54.4388 58.921 54.4141 58.9896 54.3784C59.0484 54.3358 59.1072 54.3054 59.1498 54.277C59.2015 54.2418 59.2503 54.2025 59.2957 54.1594C59.3261 54.131 59.3687 54.1169 59.3991 54.0865C59.4307 54.0705 59.4651 54.0608 59.5004 54.0581C59.5234 54.0569 59.5463 54.0617 59.5669 54.072C59.5875 54.0823 59.6051 54.0978 59.618 54.1169L59.7477 54.2912C59.6526 54.4005 59.5451 54.4984 59.4275 54.5831C59.3261 54.6588 59.219 54.7266 59.1072 54.7858C58.9981 54.8328 58.8856 54.8714 58.7707 54.9013C58.6977 54.9175 58.6247 54.9175 58.5518 54.9317V54.9338ZM58.5518 53.3425V52.9493L58.5964 52.933C58.7572 52.9058 58.9109 52.8465 59.0484 52.7587C59.1414 52.7228 59.2189 52.6554 59.2673 52.5682C59.3 52.4993 59.3199 52.4252 59.3261 52.3492C59.3227 52.3047 59.3125 52.2609 59.2957 52.2195C59.277 52.1736 59.247 52.1332 59.2085 52.1019C59.1666 52.0661 59.1165 52.041 59.0626 52.029C58.9939 51.9978 58.9191 51.9826 58.8437 51.9844C58.7433 51.9833 58.6439 52.0033 58.5518 52.0432V51.6053C58.6578 51.5888 58.7648 51.5793 58.872 51.5769C59.0211 51.5755 59.1693 51.6002 59.3099 51.6499C59.4186 51.6863 59.5182 51.7457 59.6018 51.8242C59.6735 51.8974 59.733 51.9816 59.7781 52.0736C59.8161 52.1505 59.8362 52.2351 59.8369 52.3209C59.8389 52.4572 59.8083 52.592 59.7477 52.7141C59.6729 52.8492 59.562 52.9607 59.4275 53.0364C59.227 53.1508 59.0103 53.2342 58.7849 53.2837C58.7119 53.2999 58.6389 53.3304 58.5518 53.3445V53.3425ZM58.5518 51.6053V52.0432C58.5206 52.0459 58.4907 52.0564 58.4646 52.0736C58.3537 52.1325 58.2547 52.2116 58.1727 52.3067C58.0786 52.4058 58 52.5185 57.9396 52.6411C57.8816 52.7838 57.8328 52.9301 57.7936 53.079C58.1139 53.0364 58.3612 52.9918 58.5518 52.9493V53.3425C58.2837 53.3957 58.0131 53.4349 57.7409 53.4601V53.5898C57.731 53.8284 57.797 54.0641 57.9295 54.2628C58.003 54.3382 58.092 54.3969 58.1903 54.4347C58.2886 54.4725 58.3939 54.4885 58.4991 54.4817H58.5578V54.9338H58.3835C58.2141 54.9351 58.0458 54.9055 57.8869 54.8466C57.7445 54.7844 57.6157 54.6949 57.5078 54.5831C57.404 54.4576 57.3243 54.3139 57.2727 54.1594C57.2344 54.0514 57.2099 53.9391 57.1997 53.825V53.3871C57.1994 53.2927 57.2144 53.1989 57.2443 53.1094C57.2767 52.9441 57.3256 52.7825 57.3903 52.627C57.4607 52.4849 57.5434 52.3492 57.6376 52.2215C57.7345 52.0952 57.8477 51.982 57.974 51.885C58.1021 51.7855 58.2451 51.7068 58.3977 51.6519C58.4565 51.6377 58.4991 51.6215 58.5578 51.6073L58.5518 51.6053ZM57.1936 51.7087V51.6499V51.7087ZM57.1936 51.6499V51.7087L57.0923 52.2033C56.9735 52.1448 56.8394 52.1247 56.7087 52.1458C56.5779 52.1668 56.457 52.228 56.3625 52.3209C56.1436 52.5114 55.9693 52.8601 55.8375 53.3709L55.647 54.8892H55.0936L55.4868 51.6215H55.7645C55.8963 51.6215 55.9672 51.6803 55.9672 51.8121L55.9085 52.5418C55.9873 52.3735 56.0802 52.2121 56.1862 52.0594C56.2777 51.9384 56.3855 51.8306 56.5064 51.7391C56.6058 51.6677 56.7215 51.6223 56.8429 51.6073C56.9611 51.5931 57.0809 51.6084 57.1916 51.6519L57.1936 51.6499ZM57.1936 53.3871C57.1747 53.5324 57.1747 53.6796 57.1936 53.825V53.3871ZM46.0731 54.1979V53.7743C46.071 53.7536 46.076 53.7329 46.0873 53.7155L46.3204 51.6276H46.89L46.6569 53.7175C46.6228 53.9081 46.6381 54.1042 46.7015 54.2871C46.7347 54.3493 46.7854 54.4004 46.8474 54.4339C46.9094 54.4674 46.9799 54.4819 47.0501 54.4756C47.1582 54.4707 47.2636 54.4409 47.3583 54.3885C47.4677 54.3273 47.5663 54.2485 47.6502 54.1554C47.7569 54.051 47.8496 53.9331 47.9258 53.8047C48.0146 53.6572 48.088 53.501 48.1448 53.3385L48.3475 51.6296H48.9171L48.5238 54.8993H48.2461C48.1002 54.8993 48.0272 54.8263 48.0272 54.6966L48.086 54.0986C47.9333 54.3474 47.7353 54.5654 47.5022 54.7412C47.301 54.87 47.068 54.9402 46.8292 54.9439C46.7041 54.9428 46.5802 54.9181 46.4643 54.8709C46.3615 54.8109 46.2762 54.725 46.217 54.6216C46.142 54.5071 46.0922 54.3778 46.0711 54.2425V54.2L46.0731 54.1979ZM46.0731 50.3303V50.2715H46.0873L46.0731 50.3303ZM49.6489 54.2851V54.1392C49.6489 54.1087 49.663 54.052 49.663 53.9932C49.663 53.9344 49.6772 53.8473 49.6935 53.7439L49.8962 52.1101H49.5313C49.5045 52.109 49.4788 52.099 49.4583 52.0817C49.4405 52.0501 49.4308 52.0146 49.4299 51.9783L49.4583 51.7594L49.9691 51.6864L50.2043 50.6729C50.2185 50.641 50.2377 50.6116 50.261 50.5857C50.2874 50.5679 50.3184 50.558 50.3502 50.5573H50.6421L50.5104 51.6803H51.3719L51.3131 52.104H50.4516L50.261 53.7094C50.2464 53.7816 50.2369 53.8548 50.2327 53.9283C50.2327 53.9729 50.2185 54.0155 50.2185 54.0601V54.1229C50.217 54.1337 50.212 54.1437 50.2043 54.1513C50.2001 54.1964 50.2058 54.2418 50.2208 54.2845C50.2359 54.3272 50.26 54.3661 50.2914 54.3986C50.3169 54.4262 50.3486 54.4472 50.3839 54.4599C50.4191 54.4726 50.457 54.4766 50.4941 54.4716C50.5432 54.4745 50.5925 54.4697 50.6401 54.4574C50.6804 54.4415 50.7191 54.4219 50.7556 54.3986C50.7858 54.3887 50.8115 54.3686 50.8286 54.3419C50.8462 54.3308 50.8666 54.3251 50.8874 54.3256C50.9016 54.3256 50.932 54.3256 50.932 54.3419C50.932 54.3581 50.9462 54.3561 50.9604 54.3844L51.0779 54.6479C50.9793 54.7467 50.8593 54.8216 50.7273 54.8669C50.5995 54.9232 50.4615 54.9529 50.3218 54.954C50.1398 54.9635 49.9614 54.9008 49.8252 54.7797C49.7642 54.713 49.7173 54.6345 49.6873 54.5492C49.6574 54.4639 49.645 54.3733 49.6509 54.2831L49.6489 54.2851ZM52.6124 51.6276L52.3631 53.7175C52.329 53.9081 52.3443 54.1042 52.4077 54.2871C52.4414 54.3493 52.4926 54.4003 52.5549 54.4338C52.6172 54.4673 52.6879 54.4818 52.7584 54.4756C52.8663 54.4743 52.972 54.4442 53.0645 54.3885C53.1763 54.3246 53.2793 54.2462 53.3706 54.1554C53.4683 54.0463 53.5565 53.929 53.6341 53.8047C53.7213 53.6563 53.7945 53.5003 53.853 53.3385L54.0557 51.6296H54.6253L54.2321 54.8993H53.9544C53.9268 54.9034 53.8987 54.901 53.8722 54.8923C53.8457 54.8835 53.8217 54.8687 53.802 54.849C53.7822 54.8293 53.7674 54.8052 53.7587 54.7788C53.75 54.7523 53.7476 54.7242 53.7517 54.6966L53.7962 54.0986C53.6484 54.351 53.4496 54.5699 53.2125 54.7412C53.0119 54.8697 52.7796 54.9399 52.5415 54.9439C52.4163 54.9432 52.2924 54.9185 52.1766 54.8709C52.0727 54.8116 51.9866 54.7255 51.9273 54.6216C51.8531 54.5066 51.8034 54.3776 51.7813 54.2425C51.7652 54.0676 51.7699 53.8913 51.7955 53.7175L52.0307 51.6296L52.6124 51.6276ZM46.0731 50.2715V50.3303L46.0285 50.5634C46.024 50.5835 46.0131 50.6015 45.9973 50.6147C45.9816 50.6279 45.9619 50.6355 45.9413 50.6364H45.7569C45.673 50.6379 45.5896 50.6474 45.5075 50.6647C45.4255 50.6914 45.3506 50.7365 45.2886 50.7965C45.2287 50.8717 45.1796 50.955 45.1427 51.0438C45.0936 51.1548 45.0641 51.2734 45.0555 51.3945L45.0069 51.6904H45.8177L45.7731 52.1141H44.9623L44.642 54.8L44.4798 55.4709C44.4649 55.5381 44.4295 55.5991 44.3785 55.6453C44.3526 55.6679 44.3223 55.6848 44.2894 55.6949C44.2566 55.705 44.222 55.7081 44.1879 55.7041H43.969L44.4089 52.0959L44.0886 52.0675C44.0566 52.0527 44.0272 52.0328 44.0014 52.0087C43.971 51.9945 43.971 51.9641 43.971 51.9053L44.0014 51.6722H44.4677L44.5122 51.3661C44.522 51.1936 44.5661 51.0247 44.642 50.8695C44.7092 50.73 44.7982 50.6021 44.9055 50.4904C45.0151 50.3991 45.1382 50.3253 45.2704 50.2715C45.4139 50.213 45.5675 50.1834 45.7224 50.1843C45.8428 50.1871 45.9616 50.2118 46.0731 50.2573V50.2715ZM46.0731 53.7743C46.0588 53.9151 46.0588 54.0571 46.0731 54.1979V53.7743ZM34.9668 54.9277V54.4675C35.0593 54.4497 35.1478 54.4153 35.2282 54.3662C35.361 54.2754 35.4713 54.1555 35.5506 54.0155C35.6548 53.8656 35.7291 53.697 35.7695 53.5189C35.8157 53.3276 35.8402 53.1318 35.8425 52.9351C35.859 52.6937 35.7972 52.4533 35.6661 52.2499C35.6019 52.1748 35.5209 52.1159 35.4297 52.0779C35.3385 52.0398 35.2396 52.0238 35.1411 52.031C35.0826 52.0287 35.0241 52.0334 34.9668 52.0452V51.5931C35.0439 51.5818 35.1219 51.577 35.1999 51.579C35.3693 51.5781 35.5375 51.6076 35.6965 51.6661C35.8421 51.7224 35.9721 51.8128 36.0756 51.9296C36.1871 52.0571 36.2713 52.2061 36.3229 52.3675C36.3857 52.55 36.4159 52.7421 36.4121 52.9351C36.41 53.1975 36.3704 53.4582 36.2945 53.7094C36.2105 53.9429 36.0871 54.1602 35.9296 54.352C35.7854 54.5276 35.6067 54.6718 35.4046 54.7757C35.2674 54.8474 35.1196 54.8967 34.9668 54.9216V54.9277ZM37.8047 51.6276L37.5634 53.7175C37.5293 53.9081 37.5447 54.1042 37.608 54.2871C37.6431 54.3481 37.6945 54.3981 37.7565 54.4315C37.8184 54.4648 37.8885 54.4801 37.9587 54.4756C38.0667 54.4743 38.1723 54.4442 38.2648 54.3885C38.3767 54.3246 38.4796 54.2462 38.5709 54.1554C38.6789 54.0516 38.7723 53.9336 38.8486 53.8047C38.9216 53.6587 38.9946 53.4986 39.0675 53.3385L39.2581 51.6296H39.8419L39.4466 54.8993H39.1547C39.1274 54.9022 39.0997 54.8989 39.0739 54.8897C39.048 54.8806 39.0244 54.8657 39.005 54.8463C38.9856 54.8269 38.9707 54.8033 38.9616 54.7774C38.9524 54.7515 38.9491 54.7239 38.952 54.6966L38.9966 54.0986C38.8493 54.3515 38.6504 54.5704 38.4128 54.7412C38.2165 54.8676 37.9894 54.9377 37.756 54.9439C37.6307 54.9447 37.5065 54.9199 37.3911 54.8709C37.28 54.8166 37.188 54.7296 37.1276 54.6216C37.052 54.5088 37.0072 54.3781 36.9979 54.2425C36.9674 54.0689 36.9674 53.8912 36.9979 53.7175L37.2452 51.6296L37.8047 51.6276ZM40.2858 54.8973L40.6892 51.6215H40.9811C41.1128 51.6215 41.1716 51.6803 41.1716 51.8121L41.1128 52.5418C41.1916 52.3705 41.2895 52.2086 41.4047 52.0594C41.4959 51.9427 41.5984 51.8354 41.7108 51.7391C41.8113 51.6675 41.9281 51.6221 42.0505 51.6069C42.1729 51.5917 42.2972 51.6072 42.4122 51.6519L42.3088 52.2053C42.1877 52.1462 42.0514 52.1258 41.9183 52.1469C41.7852 52.1679 41.6619 52.2294 41.5649 52.3229C41.346 52.5134 41.1716 52.8621 41.0399 53.3729L40.8655 54.8912L40.2858 54.8973ZM34.9586 51.5992V52.0513C34.8698 52.0699 34.7853 52.105 34.7093 52.1546C34.5767 52.2486 34.4632 52.3669 34.3749 52.5033C34.282 52.6574 34.2136 52.8249 34.1721 52.9999C34.1243 53.1909 34.0998 53.3869 34.0992 53.5837C34.0834 53.8254 34.1444 54.0659 34.2735 54.2709C34.3371 54.3481 34.4179 54.4094 34.5094 54.4499C34.6009 54.4903 34.7006 54.5089 34.8005 54.504C34.8552 54.5029 34.9094 54.4927 34.9607 54.4736V54.9277C34.8883 54.9395 34.815 54.9442 34.7418 54.9419C34.5723 54.9432 34.404 54.9137 34.2451 54.8547C34.0995 54.7984 33.9695 54.708 33.8661 54.5912C33.7528 54.47 33.6677 54.3253 33.6167 54.1675C33.544 53.9817 33.5096 53.7832 33.5154 53.5837C33.5128 53.3205 33.5575 53.0589 33.6471 52.8114C33.727 52.5761 33.8508 52.358 34.012 52.1688C34.1551 51.9921 34.334 51.8477 34.537 51.7452C34.667 51.6686 34.8111 51.6189 34.9607 51.5992H34.9586ZM27.4504 54.9338V54.4817C27.5243 54.4806 27.5978 54.4704 27.6693 54.4513C27.7457 54.4388 27.8196 54.4141 27.8882 54.3784C27.947 54.3358 28.0038 54.3054 28.0484 54.277C28.0983 54.2452 28.1428 54.2055 28.1801 54.1594C28.221 54.1391 28.2597 54.1147 28.2957 54.0865C28.328 54.0705 28.3631 54.0608 28.399 54.0581C28.4215 54.0583 28.4437 54.0637 28.4637 54.0739C28.4837 54.0841 28.5012 54.0988 28.5146 54.1169L28.6463 54.2912C28.5473 54.3967 28.4402 54.4942 28.3261 54.5831C28.224 54.6588 28.1162 54.7266 28.0038 54.7858C27.8954 54.8328 27.7836 54.8714 27.6693 54.9013C27.5963 54.9175 27.5233 54.9175 27.4504 54.9317V54.9338ZM27.4504 53.3425V52.9493L27.4929 52.933C27.6538 52.9036 27.8078 52.8445 27.947 52.7587C28.04 52.7228 28.1175 52.6554 28.1659 52.5682C28.198 52.4992 28.2172 52.4251 28.2227 52.3492C28.2201 52.3048 28.2105 52.261 28.1943 52.2195C28.1749 52.174 28.145 52.1337 28.1071 52.1019C28.0649 52.0665 28.0149 52.0416 27.9612 52.029C27.8925 51.9978 27.8177 51.9826 27.7423 51.9844C27.6418 51.9817 27.542 52.0018 27.4504 52.0432V51.6053C27.5564 51.5888 27.6634 51.5793 27.7706 51.5769C27.9197 51.5757 28.0679 51.6004 28.2085 51.6499C28.3172 51.6863 28.4168 51.7457 28.5004 51.8242C28.5721 51.8974 28.6316 51.9816 28.6767 52.0736C28.7075 52.1528 28.7267 52.2361 28.7335 52.3209C28.7361 52.457 28.7062 52.5918 28.6463 52.7141C28.5668 52.8455 28.457 52.956 28.3261 53.0364C28.1256 53.1508 27.9089 53.2342 27.6835 53.2837C27.6105 53.2979 27.5375 53.3283 27.4504 53.3425ZM31.318 55.8682C31.292 55.9045 31.2628 55.9384 31.2309 55.9696C31.1941 55.9873 31.1541 55.997 31.1133 55.998H30.6896L31.4052 54.7007L30.5538 51.6215H31.0221C31.0582 51.6208 31.0937 51.6314 31.1234 51.6519C31.1484 51.6769 31.1684 51.7065 31.1822 51.7391L31.7072 53.7966C31.7072 53.8412 31.7214 53.9 31.7214 53.9425C31.7347 53.9851 31.7402 54.0297 31.7376 54.0743C31.7624 54.0331 31.7815 53.9888 31.7944 53.9425C31.8248 53.8837 31.839 53.8412 31.8674 53.7966L32.8809 51.7391C32.9017 51.7073 32.9262 51.678 32.9539 51.6519C32.9868 51.6372 33.0216 51.627 33.0573 51.6215H33.5093L31.318 55.8682ZM27.4504 51.6114V52.0492C27.4192 52.0516 27.3891 52.0621 27.3632 52.0796C27.2523 52.1386 27.1533 52.2176 27.0713 52.3128C26.9765 52.4118 26.8972 52.5245 26.8362 52.6472C26.7736 52.7882 26.7248 52.9348 26.6902 53.0851C26.9983 53.0425 27.2598 52.9979 27.4504 52.9553V53.3486C27.1823 53.4018 26.9117 53.441 26.6395 53.4662V53.5959C26.6218 53.8354 26.6885 54.0735 26.8281 54.2689C26.9016 54.3443 26.9906 54.403 27.0889 54.4407C27.1872 54.4785 27.2925 54.4946 27.3977 54.4878H27.4564V54.9338H27.2801C27.1113 54.9349 26.9437 54.9054 26.7855 54.8466C26.6427 54.784 26.5134 54.6945 26.4044 54.5831C26.2969 54.4605 26.2173 54.3159 26.1713 54.1594C26.1103 53.9814 26.0809 53.7942 26.0841 53.606C26.0815 53.4386 26.1013 53.2716 26.1429 53.1094C26.1753 52.9441 26.2242 52.7825 26.2889 52.627C26.354 52.482 26.4371 52.3458 26.5362 52.2215C26.6332 52.0952 26.7463 51.982 26.8727 51.885C27.0004 51.7851 27.1435 51.7064 27.2963 51.6519C27.3389 51.6377 27.3977 51.6215 27.4564 51.6073L27.4504 51.6114ZM21.9469 54.7635V54.3419C22.0445 54.2747 22.129 54.1902 22.1962 54.0925C22.2981 53.9675 22.3859 53.8315 22.4577 53.6871C22.5384 53.5119 22.6062 53.331 22.6604 53.1459L22.8063 52.0229C22.7476 52.0229 22.705 52.0087 22.6604 52.0087H22.5144C22.3905 52.0069 22.2671 52.026 22.1496 52.0655L21.9469 52.1546V51.6904C21.9798 51.6762 22.0146 51.6666 22.0502 51.6621C22.2288 51.6034 22.4157 51.574 22.6036 51.5749C22.7392 51.5774 22.8745 51.5869 23.009 51.6033C23.1421 51.6357 23.2733 51.6749 23.4023 51.7208L23.009 54.8871H22.7171C22.63 54.8871 22.5854 54.873 22.557 54.8284C22.5237 54.7874 22.5077 54.735 22.5124 54.6824L22.5712 54.0256C22.5004 54.1599 22.4176 54.2874 22.3239 54.4067C22.2417 54.5085 22.1486 54.601 22.0462 54.6824C22.0147 54.7107 21.98 54.7352 21.9428 54.7554L21.9469 54.7635ZM24.1219 54.2831V54.1371C24.1219 54.1067 24.1361 54.05 24.1361 53.9912C24.1361 53.9324 24.1523 53.8452 24.1665 53.7418L24.3692 52.108H24.0043C23.9774 52.1079 23.9514 52.0978 23.9314 52.0796C23.921 52.0648 23.9142 52.0477 23.9114 52.0298C23.9085 52.0119 23.9098 51.9936 23.9152 51.9763L23.9314 51.7573L24.4422 51.6844L24.6895 50.6708C24.6895 50.6424 24.7179 50.6141 24.7341 50.5837C24.7606 50.5677 24.7904 50.558 24.8213 50.5553H25.1273L24.9814 51.6783H25.8429L25.7983 52.1019H24.9388L24.7361 53.7074C24.7199 53.7946 24.7199 53.8675 24.7057 53.9263C24.708 53.9707 24.7032 54.0152 24.6915 54.0581V54.1452C24.6852 54.1893 24.6885 54.2342 24.7011 54.2768C24.7137 54.3195 24.7353 54.359 24.7645 54.3925C24.7909 54.4187 24.8228 54.4388 24.8578 54.4514C24.8928 54.4641 24.9301 54.4689 24.9672 54.4655C25.021 54.4685 25.0749 54.4637 25.1273 54.4513C25.1557 54.4371 25.2003 54.4088 25.2287 54.3925C25.2614 54.3788 25.2916 54.3596 25.3179 54.3358C25.3231 54.3298 25.3297 54.3252 25.3372 54.3224C25.3446 54.3196 25.3526 54.3186 25.3605 54.3196C25.3909 54.3196 25.4051 54.3196 25.4051 54.3358C25.4051 54.352 25.4334 54.35 25.4334 54.3784L25.5652 54.6419C25.4592 54.7381 25.3352 54.8125 25.2003 54.8608C25.073 54.9185 24.9347 54.9482 24.7949 54.948C24.7072 54.9527 24.6195 54.9397 24.5369 54.9098C24.4544 54.8798 24.3787 54.8335 24.3145 54.7736C24.2478 54.7106 24.1959 54.6335 24.1626 54.548C24.1293 54.4624 24.1154 54.3706 24.1219 54.279V54.2831ZM21.9469 51.6904V52.1445L21.8171 52.2317C21.7024 52.304 21.6032 52.3984 21.5252 52.5094C21.438 52.6108 21.3644 52.7233 21.3063 52.8439C21.2438 52.9736 21.1948 53.1094 21.1604 53.2493C21.1259 53.3928 21.1062 53.5395 21.1016 53.6871C21.1016 54.2121 21.2759 54.4736 21.5982 54.4736C21.7121 54.4692 21.8228 54.4342 21.9185 54.3723L21.9469 54.3439V54.7655C21.8774 54.8109 21.8042 54.8503 21.7279 54.8831C21.6216 54.9253 21.5078 54.9453 21.3935 54.9419C21.2684 54.9398 21.1448 54.915 21.0286 54.8689C20.9252 54.8169 20.8351 54.7421 20.7651 54.65C20.6867 54.5391 20.6277 54.4157 20.5907 54.2851V53.3121C20.5885 53.277 20.5933 53.2419 20.6049 53.2087C20.6515 53.0308 20.7196 52.8593 20.8076 52.6979C20.898 52.5362 21.0053 52.3847 21.1279 52.2459C21.2514 52.105 21.394 51.9822 21.5516 51.881C21.6771 51.8065 21.8086 51.7427 21.9448 51.6904H21.9469ZM20.5907 51.9256L20.6333 51.6479C20.6191 51.6479 20.6049 51.6337 20.5907 51.6337V51.9256ZM20.5907 51.6337V51.9256L20.532 52.2013C20.4106 52.1433 20.2746 52.1236 20.1417 52.1446C20.0089 52.1655 19.8856 52.2263 19.788 52.3188C19.5853 52.5094 19.409 52.858 19.263 53.3689L19.0867 54.8871H18.5333L18.9265 51.6175H19.2022C19.334 51.6175 19.4049 51.6763 19.4049 51.808L19.3461 52.5378C19.4195 52.3666 19.5127 52.2047 19.6238 52.0553C19.7144 51.9382 19.817 51.8308 19.9299 51.735C20.0356 51.6656 20.1554 51.6206 20.2806 51.6033C20.3835 51.5848 20.4895 51.5954 20.5867 51.6337H20.5907ZM20.5907 53.3121C20.5484 53.4638 20.5286 53.6209 20.532 53.7783C20.5277 53.9358 20.5475 54.0931 20.5907 54.2446V53.3121ZM16.8103 54.9338V54.4817C16.8841 54.4796 16.9575 54.4694 17.0292 54.4513C17.1044 54.4344 17.1777 54.4099 17.2481 54.3784C17.3069 54.3358 17.3657 54.3054 17.4082 54.277C17.4586 54.2457 17.5032 54.2059 17.54 54.1594C17.5815 54.1391 17.6209 54.1146 17.6576 54.0865C17.6892 54.0705 17.7236 54.0608 17.7589 54.0581C17.7797 54.057 17.8003 54.062 17.8183 54.0724C17.8363 54.0829 17.8509 54.0983 17.8603 54.1169L18.0062 54.2912C17.9072 54.3967 17.8001 54.4942 17.686 54.5831C17.5846 54.6588 17.4775 54.7266 17.3657 54.7858C17.2566 54.8328 17.1441 54.8714 17.0292 54.9013C16.9562 54.9175 16.8832 54.9175 16.8103 54.9317V54.9338ZM16.8103 53.3425V52.9493L16.8549 52.933C17.015 52.9033 17.1682 52.8442 17.3069 52.7587C17.3973 52.7185 17.4735 52.6521 17.5258 52.5682C17.5534 52.4984 17.5678 52.4242 17.5684 52.3492C17.5707 52.3055 17.5659 52.2617 17.5542 52.2195C17.5305 52.1766 17.5012 52.1371 17.467 52.1019C17.423 52.0693 17.3736 52.0446 17.3211 52.029C17.2524 51.9978 17.1776 51.9826 17.1022 51.9844C17.0017 51.9819 16.9019 52.0019 16.8103 52.0432V51.6053C16.9162 51.5882 17.0232 51.5787 17.1305 51.5769C17.275 51.5754 17.4186 51.6001 17.5542 51.6499C17.6672 51.6863 17.7714 51.7456 17.8603 51.8242C17.932 51.8974 17.9915 51.9816 18.0366 52.0736C18.068 52.1527 18.0878 52.236 18.0954 52.3209C18.0974 52.4572 18.0668 52.592 18.0062 52.7141C17.9272 52.846 17.8173 52.9566 17.686 53.0364C17.4843 53.1484 17.268 53.2316 17.0434 53.2837C16.9724 53.2999 16.8974 53.3304 16.8103 53.3445V53.3425ZM16.8103 51.6053V52.0432C16.7791 52.0459 16.7492 52.0564 16.7231 52.0736C16.6055 52.1283 16.501 52.2078 16.417 52.3067C16.3267 52.4058 16.2527 52.5187 16.1981 52.6411C16.1338 52.7814 16.0848 52.9282 16.0521 53.079C16.3582 53.0364 16.6197 52.9918 16.8103 52.9493V53.3425C16.5771 53.3871 16.3136 53.4297 15.9994 53.4601V53.5898C15.9827 53.8292 16.0493 54.0669 16.1879 54.2628C16.2615 54.3382 16.3504 54.3969 16.4488 54.4347C16.5471 54.4725 16.6524 54.4885 16.7576 54.4817H16.8163V54.9338H16.642C16.4724 54.9364 16.3039 54.9068 16.1454 54.8466C16.001 54.788 15.8715 54.698 15.7663 54.5831C15.658 54.4583 15.5735 54.3147 15.517 54.1594C15.469 53.9789 15.4445 53.7929 15.444 53.606C15.4437 53.4395 15.4586 53.2732 15.4886 53.1094C15.5257 52.9436 15.5794 52.782 15.6487 52.627C15.7139 52.482 15.797 52.3458 15.896 52.2215C15.9881 52.0952 16.0996 51.9844 16.2265 51.8932C16.3545 51.7936 16.4975 51.7149 16.6501 51.66C16.6927 51.6459 16.7515 51.6296 16.8103 51.6154V51.6053ZM12.2716 54.9338V54.4817C12.3454 54.4786 12.4187 54.4684 12.4906 54.4513C12.5612 54.4364 12.6294 54.4118 12.6933 54.3784C12.7662 54.3358 12.823 54.3054 12.8676 54.277C12.9122 54.2486 12.9548 54.204 12.9994 54.1594C13.044 54.1148 13.0723 54.1169 13.1149 54.0865C13.1465 54.0686 13.182 54.0589 13.2183 54.0581C13.2387 54.0587 13.2587 54.0644 13.2764 54.0747C13.2941 54.085 13.3089 54.0994 13.3196 54.1169L13.4656 54.2912C13.35 54.4088 13.2467 54.4939 13.1453 54.5831C13.044 54.6723 12.9264 54.729 12.823 54.7858C12.7098 54.8328 12.5932 54.8714 12.4743 54.9013C12.4156 54.9175 12.3426 54.9175 12.2716 54.9317V54.9338ZM12.2716 53.3425V52.9493L12.3 52.933C12.4659 52.9059 12.625 52.8467 12.7683 52.7587C12.856 52.7144 12.9312 52.6489 12.9872 52.5682C13.0148 52.4984 13.0292 52.4242 13.0298 52.3492C13.0271 52.3048 13.0176 52.261 13.0014 52.2195C12.9823 52.1773 12.9578 52.1378 12.9284 52.1019C12.8844 52.0693 12.835 52.0446 12.7825 52.029C12.7129 52.0007 12.6386 51.9856 12.5635 51.9844C12.463 51.9817 12.3633 52.0018 12.2716 52.0432V51.6053C12.3776 51.5882 12.4846 51.5787 12.5919 51.5769C12.7363 51.5759 12.8798 51.6006 13.0156 51.6499C13.127 51.6897 13.2306 51.7487 13.3217 51.8242C13.3938 51.8937 13.4486 51.9791 13.4818 52.0736C13.5208 52.1502 13.5409 52.2349 13.5406 52.3209C13.5432 52.457 13.5133 52.5918 13.4534 52.7141C13.378 52.8487 13.2673 52.9602 13.1331 53.0364C12.9378 53.1511 12.7258 53.2345 12.5048 53.2837C12.4318 53.2979 12.3446 53.3283 12.2716 53.3425ZM13.9926 54.8892L14.5764 50.1316H15.1481L14.5643 54.8892H13.9926ZM4.78363 54.8892H4.3174C4.29588 54.8911 4.27421 54.8883 4.2539 54.8809C4.23359 54.8736 4.21513 54.8619 4.19983 54.8466C4.15726 54.8304 4.14104 54.7878 4.12685 54.7432L3.87955 53.6202H2.98561V53.1824H3.77617L3.35454 51.2546C3.34099 51.1924 3.33084 51.1294 3.32413 51.0661C3.30994 50.9931 3.29575 50.906 3.28156 50.8168C3.23697 50.906 3.20859 50.9931 3.17818 51.0661C3.14778 51.1391 3.1194 51.2121 3.09102 51.2688L2.98561 51.4877V50.3627L3.02818 50.2614H3.6363L4.77349 54.8871L4.78363 54.8892ZM12.2716 51.6053V52.0432C12.2404 52.0456 12.2104 52.056 12.1845 52.0736C12.0665 52.1288 11.9615 52.2082 11.8764 52.3067C11.7873 52.4068 11.7136 52.5195 11.6574 52.6411C11.5878 52.7792 11.5386 52.9267 11.5115 53.079C11.8196 53.0364 12.0669 52.9918 12.2716 52.9493V53.3425C12.0385 53.3871 11.7608 53.4297 11.4608 53.4601V53.5898C11.4431 53.8293 11.5098 54.0674 11.6493 54.2628C11.721 54.3407 11.8097 54.401 11.9085 54.439C12.0073 54.4769 12.1135 54.4916 12.2189 54.4817H12.2777V54.9338H12.1014C11.9273 54.9347 11.7544 54.9052 11.5905 54.8466C11.4505 54.7804 11.3224 54.6913 11.2115 54.5831C11.1091 54.4569 11.0301 54.3134 10.9784 54.1594C10.9174 53.9814 10.8879 53.7942 10.8912 53.606C10.8956 53.439 10.9153 53.2728 10.95 53.1094C10.9806 52.9419 11.0345 52.7795 11.1101 52.627C11.1699 52.4792 11.2534 52.3423 11.3574 52.2215C11.4454 52.0918 11.5576 51.9803 11.6878 51.8932C11.8092 51.7936 11.9462 51.7148 12.0933 51.66L12.2696 51.6154L12.2716 51.6053ZM7.60937 54.3054C7.4918 54.4229 7.39044 54.5243 7.28706 54.6115C7.196 54.6911 7.09263 54.7555 6.98097 54.802C6.88246 54.8578 6.77336 54.8923 6.6607 54.9034C6.54579 54.9298 6.42775 54.9401 6.31001 54.9338C6.14044 54.9364 5.97192 54.9068 5.81338 54.8466C5.67485 54.7787 5.5509 54.6843 5.44851 54.5689C5.34051 54.4474 5.26088 54.3033 5.21539 54.1473C5.16049 53.973 5.13581 53.7906 5.14242 53.6081C5.13754 53.3452 5.17729 53.0833 5.25999 52.8337C5.3478 52.6028 5.46939 52.3863 5.62081 52.1911C5.76401 52.007 5.94249 51.8534 6.14582 51.7391C6.35435 51.6353 6.58385 51.5805 6.81678 51.579C7.00832 51.5745 7.19833 51.614 7.3722 51.6945C7.52418 51.774 7.65434 51.8895 7.75126 52.031L7.57491 52.2499C7.56819 52.2586 7.5596 52.2657 7.54977 52.2706C7.53995 52.2755 7.52914 52.2781 7.51815 52.2783C7.51123 52.2874 7.50236 52.2949 7.49219 52.3001C7.48202 52.3054 7.47081 52.3083 7.45936 52.3087C7.44248 52.308 7.42596 52.3036 7.41092 52.2959C7.39588 52.2882 7.38267 52.2774 7.3722 52.2641C7.33561 52.2317 7.29627 52.2025 7.25463 52.1769C7.20431 52.1313 7.1449 52.0967 7.0803 52.0756C6.99518 52.0488 6.90576 52.0385 6.81678 52.0452C6.66677 52.0394 6.51868 52.0804 6.39312 52.1628C6.25076 52.2473 6.12946 52.363 6.03838 52.5013C5.93283 52.6523 5.85398 52.8202 5.80527 52.9979C5.74619 53.1952 5.71681 53.4001 5.71811 53.606C5.71709 53.7291 5.73208 53.8517 5.7627 53.9709C5.78966 54.0671 5.83591 54.1567 5.89864 54.2345C5.96137 54.3122 6.03926 54.3763 6.12758 54.4229C6.22378 54.4657 6.32849 54.4858 6.43366 54.4817C6.54183 54.4896 6.65049 54.4758 6.7532 54.441C6.85591 54.4062 6.9506 54.3511 7.03165 54.279C7.09509 54.2426 7.15367 54.1984 7.20598 54.1473C7.2389 54.1069 7.28608 54.0808 7.33774 54.0743C7.36074 54.0731 7.38365 54.0779 7.40424 54.0882C7.42484 54.0985 7.44243 54.114 7.45531 54.1331L7.60126 54.3074L7.60937 54.3054ZM10.4838 54.3054C10.3682 54.4229 10.2648 54.5243 10.1635 54.6115C10.0718 54.6903 9.96857 54.7545 9.85739 54.802C9.75815 54.8578 9.64839 54.8923 9.53509 54.9034C9.4202 54.9299 9.30215 54.9401 9.1844 54.9338C9.01551 54.9362 8.84769 54.9066 8.6898 54.8466C8.55093 54.7792 8.42689 54.6848 8.32492 54.5689C8.22024 54.4465 8.14531 54.3015 8.106 54.1452C8.04559 53.9719 8.01542 53.7896 8.01681 53.606C8.01673 53.3423 8.06128 53.0805 8.14857 52.8317C8.23324 52.6014 8.3514 52.3849 8.49925 52.1891C8.64245 52.005 8.82094 51.8513 9.02427 51.7371C9.23279 51.6333 9.46229 51.5785 9.69523 51.5769C9.88677 51.5725 10.0768 51.612 10.2506 51.6925C10.4003 51.7753 10.5298 51.8902 10.6297 52.029L10.4554 52.2479C10.439 52.2629 10.4185 52.2728 10.3966 52.2763C10.39 52.2857 10.3812 52.2934 10.371 52.2987C10.3607 52.304 10.3493 52.3068 10.3378 52.3067C10.321 52.3057 10.3045 52.3012 10.2895 52.2935C10.2745 52.2859 10.2613 52.2751 10.2506 52.2621C10.2144 52.2292 10.1751 52.2 10.1331 52.1749C10.0831 52.1288 10.0236 52.0942 9.95875 52.0736C9.86895 52.0459 9.7747 52.0356 9.68104 52.0432C9.53698 52.0394 9.39531 52.0805 9.27562 52.1607C9.13038 52.2445 9.0068 52.3611 8.9148 52.5013C8.80766 52.6513 8.72868 52.8196 8.68169 52.9979C8.62192 53.1951 8.59186 53.4 8.5925 53.606C8.59259 53.729 8.60757 53.8515 8.63709 53.9709C8.66267 54.0705 8.70742 54.1641 8.76885 54.2466C8.83664 54.3174 8.91535 54.377 9.00197 54.4229C9.09821 54.4655 9.20289 54.4856 9.30806 54.4817C9.42777 54.4869 9.54724 54.4668 9.65874 54.4229C9.74941 54.3898 9.83324 54.3404 9.90604 54.277C9.96974 54.2401 10.0289 54.1958 10.0824 54.1452C10.1153 54.1049 10.1625 54.0788 10.2142 54.0723C10.2369 54.0711 10.2595 54.0759 10.2798 54.0862C10.3001 54.0965 10.3173 54.112 10.3297 54.131L10.4838 54.3054ZM2.98561 53.6222H1.9964L1.47139 54.7453C1.44526 54.7821 1.41611 54.8167 1.38422 54.8486C1.34097 54.8772 1.2901 54.892 1.23827 54.8912H0.77002L2.9998 50.3668V51.4877L2.21127 53.1803H2.98561V53.6222Z" fill="white"/>
<path fill-rule="evenodd" clip-rule="evenodd" d="M34.4986 47.5937V46.718L34.6749 45.9457H39.5054C39.629 45.9556 39.7523 45.9243 39.8561 45.8565C39.947 45.773 40.004 45.659 40.0163 45.5362L40.294 44.3686C40.294 44.324 40.3082 44.2815 40.3082 44.2227C40.3082 44.0767 40.1906 44.0038 39.9575 44.0038H36.3817C36.101 44.029 35.8207 43.9512 35.5932 43.7848C35.5041 43.7073 35.4342 43.6103 35.3888 43.5013C35.3435 43.3923 35.3239 43.2743 35.3317 43.1564C35.3335 43.039 35.3478 42.9222 35.3743 42.8078L35.8709 40.6186C35.9512 40.1934 36.1641 39.8045 36.479 39.5077C36.7567 39.2604 37.1804 39.1428 37.7642 39.1428H43.3974L43.0366 40.7442H38.2365C38.122 40.7358 38.0081 40.7673 37.9142 40.8334C37.8424 40.9227 37.7925 41.0275 37.7682 41.1395L37.5209 42.2625C37.5099 42.2902 37.505 42.3199 37.5067 42.3497C37.4939 42.3717 37.4883 42.3972 37.4905 42.4226C37.4905 42.5402 37.5939 42.6132 37.7824 42.6132H41.417C41.7048 42.5859 41.9928 42.6637 42.2278 42.8321C42.3102 42.9142 42.3748 43.0123 42.4177 43.1204C42.4606 43.2285 42.4808 43.3443 42.4771 43.4605C42.4745 43.578 42.4596 43.6948 42.4325 43.8092L41.9055 46.12C41.829 46.5438 41.6196 46.9321 41.3075 47.2288C41.0298 47.4782 40.6061 47.5937 40.0224 47.5937H34.4986ZM34.4986 40.0489L34.7013 39.1428H34.4986V40.0489ZM34.4986 39.1428V40.0489L34.3242 40.8213H29.6397C29.5069 40.8077 29.3734 40.8391 29.2606 40.9105C29.1758 41.0213 29.12 41.1516 29.0984 41.2895L28.1214 45.595C28.1072 45.6822 28.093 45.741 28.093 45.7551C28.0901 45.7879 28.0952 45.821 28.1079 45.8513C28.1206 45.8817 28.1406 45.9085 28.166 45.9295C28.2589 45.9653 28.3585 45.9805 28.4579 45.9741H31.3465L31.7843 44.0484H30.0045L30.3106 42.6902H33.9877L32.8789 47.5937H27.2031C26.8628 47.6207 26.5223 47.5444 26.2261 47.3748C26.1445 47.3197 26.0788 47.2442 26.0355 47.1559V46.0146L27.2518 40.6145C27.325 40.189 27.5349 39.799 27.8498 39.5037C28.1275 39.2564 28.5511 39.1388 29.1349 39.1388L34.4986 39.1428ZM34.4986 46.718L34.2959 47.5937H34.4986V46.718ZM26.0335 39.6111L26.1369 39.1428H26.0335V39.6111ZM16.5062 39.1428H16.6948L16.5062 39.9902V39.1428ZM26.0335 39.1428H24.2395L23.1003 44.1902L20.1225 39.1428H18.211L16.5042 46.7484V47.5937H18.1887L19.4577 42.0476L22.8733 47.5937H24.2314L26.0396 39.6111V39.1428H26.0335ZM26.0335 46.0187V47.1559C25.9562 47.0127 25.9165 46.8523 25.918 46.6896C25.9224 46.4968 25.9517 46.3053 26.0051 46.12L26.0335 46.0187ZM13.2062 45.595L14.6657 39.1428H16.5042V39.9902L14.7812 47.5937H13.2062V45.595ZM16.5042 46.7484L16.3137 47.5937H16.5042V46.7484ZM13.2062 40.0185L13.6582 39.1428H13.2062V40.0185ZM12.7521 47.5937L13.2062 45.595V47.5937H12.7521ZM13.2062 39.1428H11.6737L8.57835 45.3173L8.30064 39.1428H6.25734L2.98564 45.3315L2.84375 39.1428H0.755859L1.09235 47.5937H3.36876L6.66681 41.5672L7.00331 47.5937H9.27971L13.2062 40.0185V39.1428Z" fill="white"/>
<path fill-rule="evenodd" clip-rule="evenodd" d="M46.4379 47.5937C45.9717 47.5937 45.6271 47.5207 45.4447 47.3748C45.3427 47.2908 45.2628 47.1832 45.212 47.0613C45.1611 46.9394 45.1408 46.807 45.1528 46.6754C45.15 46.5873 45.1554 46.4991 45.169 46.4119C45.1772 46.3139 45.1914 46.2164 45.2115 46.12C45.9555 42.8645 46.0589 42.3983 46.7886 39.1286H46.146L48.2765 36.7793L49.4583 39.1226H48.8319C48.1447 42.1733 48.088 42.4064 47.4008 45.4572C47.3779 45.5282 47.3636 45.6017 47.3582 45.6761C47.3582 45.7775 47.3866 45.8362 47.4454 45.8666C47.5435 45.9014 47.6476 45.9158 47.7515 45.9092H50.4191C50.556 45.9206 50.6931 45.8902 50.8124 45.8221C50.9138 45.7243 50.9807 45.5963 51.0029 45.4572L52.4219 39.1368H58.5659C58.9069 39.1099 59.248 39.1861 59.545 39.3557C59.6455 39.4413 59.7244 39.5495 59.7751 39.6713C59.8258 39.7932 59.847 39.9254 59.8369 40.057C59.8337 40.1455 59.8235 40.2337 59.8065 40.3206C59.8065 40.4077 59.7781 40.4949 59.7639 40.6125L59.1355 43.4058C59.0606 43.827 58.8566 44.2144 58.5517 44.5146C58.274 44.7619 57.8504 44.8795 57.2666 44.8795H53.6766L54.0273 43.347H56.772C56.8968 43.358 57.0212 43.3219 57.1206 43.2456C57.2147 43.1287 57.2756 42.9887 57.297 42.8402L57.6902 41.176C57.7 41.1184 57.7047 41.0601 57.7044 41.0017C57.7089 40.9672 57.703 40.9322 57.6875 40.9012C57.6719 40.8701 57.6475 40.8444 57.6173 40.8273C57.5346 40.7928 57.4452 40.7776 57.3558 40.7827H54.0131L52.8151 46.1099C52.7398 46.5341 52.5302 46.9228 52.2171 47.2187C51.9394 47.468 51.5016 47.5836 50.934 47.5836L46.4379 47.5937Z" fill="#00AEEF"/>
<path fill-rule="evenodd" clip-rule="evenodd" d="M50.4516 1.25476V0.875697C51.2554 0.679341 52.0774 0.566577 52.9044 0.539202C52.0544 0.647862 51.2267 0.889322 50.4516 1.25476ZM46.89 0C41.6075 2.22978 38.8344 8.65561 37.2574 13.7334C36.3817 16.5713 35.506 19.6586 33.6532 22.0242C32.7449 23.1752 31.6433 24.1595 30.3977 24.933V23.1816C31.1443 22.572 31.8159 21.8759 32.3985 21.1079C34.5877 18.2437 35.2161 14.3618 36.3087 11.0638C37.9871 5.93933 41.6075 1.57707 46.89 0ZM30.3977 13.0625V18.9592C31.2734 16.9322 31.7559 14.5808 32.2363 12.5962C33.2883 8.27452 35.2283 5.5177 38.3824 3.2717C35.9333 1.93283 33.1889 1.22634 30.3977 1.21625V7.26909C31.609 6.36378 32.9042 5.57639 34.2654 4.91769C31.7984 7.12314 31.1275 9.99754 30.3977 13.0625ZM50.4516 0.875697C45.767 1.98451 42.8034 5.8096 41.3885 11.1205C40.148 15.7828 39.0392 20.5505 36.3959 24.183C34.9067 26.287 32.8157 27.8912 30.3977 28.7845V34.9731C33.3656 34.9462 36.2739 34.138 38.8302 32.6299C41.3864 31.1219 43.5004 28.9671 44.9594 26.3825C46.4183 23.7979 47.1708 20.8746 47.141 17.9068C47.1113 14.939 46.3004 12.0314 44.79 9.47658C44.1494 8.39615 44.6602 7.65221 45.1711 6.60016C46.2941 4.33794 48.1914 2.31087 50.4536 1.25881L50.4516 0.875697ZM30.3977 24.933C28.3387 26.2262 25.9553 26.9094 23.5239 26.9034C19.7434 26.8729 15.0305 25.0202 13.8912 21.6775C13.7387 20.9935 13.6317 20.3001 13.571 19.6018C14.6494 22.7539 17.6413 24.5783 20.9556 24.1688C25.2023 23.6296 27.8882 21.0167 29.3477 16.843C29.7679 15.6034 30.1184 14.3412 30.3977 13.0625V18.9592C30.2518 19.2937 30.1058 19.616 29.9315 19.9363C27.8294 23.7877 24.9388 25.1763 19.7434 25.2493C24.4057 26.3439 27.947 25.1317 30.3977 23.1776V24.933ZM30.3977 7.27315V1.21625H30.3248C25.8552 1.22645 21.5724 3.01067 18.4176 6.17686C15.2629 9.34305 13.4941 13.6322 13.5 18.1018C13.5 18.1748 13.5142 18.2335 13.5142 18.3045C13.8157 19.4676 14.4726 20.5075 15.3934 21.2793C16.3142 22.0512 17.453 22.5163 18.6508 22.61C20.4022 22.7114 22.1252 21.9228 23.38 20.7269C25.8125 18.3633 25.7598 14.7145 26.9699 11.751C27.6713 10.0138 28.6626 8.62723 30.3998 7.27112L30.3977 7.27315ZM30.3977 28.7845C27.0855 29.9825 23.3192 29.7494 19.8022 28.0851C16.8974 26.6804 14.5399 24.4607 13.9054 21.7607C14.7331 25.5009 16.8106 28.8474 19.7954 31.2485C22.7802 33.6495 26.4941 34.9619 30.3248 34.9691H30.3977V28.7845Z" fill="white"/>
</g>
<defs>
<clipPath id="clip0_153_329">
<rect width="59.0812" height="56" fill="white" transform="translate(0.755859)"/>
</clipPath>
</defs>
</svg>
